<svg width="0" height="0" class="hidden">
  <symbol fill="none" xmlns="http://www.w3.org/2000/svg" viewBox="0 0 17 28" id="Line9">
    <path d="M2 2L14 14L2 26"  stroke-width="4" stroke-linecap="round"></path>
  </symbol>
  <symbol fill="none" xmlns="http://www.w3.org/2000/svg" viewBox="0 0 17 28" id="Line10">
    <path d="M15 2L3 14L15 26"  stroke-width="4" stroke-linecap="round"></path>
  </symbol>
  <symbol version="1.1" xmlns="http://www.w3.org/2000/svg" xmlns:xlink="http://www.w3.org/1999/xlink" enable-background="new 0 0 26.1 26.1" viewBox="0 0 26.1 26.1" id="loupe_icon">
    <path d="m25.806,22.9l-5.4-5.4c-0.2-0.2-0.2-0.4-0.1-0.6 1.1-1.7 1.7-3.7 1.7-5.9 0-6.1-4.9-11-11-11s-11,4.9-11,11 4.9,11 11,11c2.2,0 4.2-0.6 5.9-1.7 0.2-0.1 0.5-0.1 0.6,0.1l5.4,5.4c0.4,0.4 1,0.4 1.4,0l1.4-1.4c0.5-0.5 0.5-1.1 0.1-1.5zm-14.7-4.9c-3.9,0-7-3.1-7-7s3.1-7 7-7 7,3.1 7,7-3.1,7-7,7z"></path>
  </symbol>
</svg>